<svg xmlns="http://www.w3.org/2000/svg" viewBox="0 0 32 32">
  <defs>
    <linearGradient id="fav-bg" x1="0" y1="0" x2="1" y2="1">
      <stop offset="0" stop-color="#34D399" />
      <stop offset="1" stop-color="#10B981" />
    </linearGradient>
  </defs>
  <rect x="2" y="2" width="28" height="28" rx="10" fill="url(#fav-bg)" />
  <path
    d="M11.5 10.5C11.5 8.57 13.02 7 15 7h2c1.98 0 3.5 1.57 3.5 3.5 0 1.72-1.08 3.02-2.58 3.43l-1.14.31c-.78.21-1.28.76-1.28 1.46V17a1.5 1.5 0 0 1-3 0v-.3c0-1.92 1.18-3.56 3.18-4.1l.9-.25c.54-.15.92-.63.92-1.3C17.5 10.45 16.86 9.8 16 9.8h-2c-.86 0-1.5.65-1.5 1.2a1.5 1.5 0 0 1-3 0Z"
    fill="#FBFBFB"
  />
  <circle cx="16" cy="23" r="1.6" fill="#FBFBFB" />
</svg>



